<mxfile host="app.diagrams.net" modified="2024-01-05T10:54:47.536Z" agent="Mozilla/5.0 (Macintosh; Intel Mac OS X 10_15_7) AppleWebKit/605.1.15 (KHTML, like Gecko) Version/17.2.1 Safari/605.1.15" etag="2jlbKeh9VC1WU2yborUg" version="22.1.16" type="github" pages="2">
  <diagram name="UseCases" id="XJpoBe87E8l241bRWTER">
    <mxGraphModel dx="1524" dy="1085" grid="1" gridSize="10" guides="1" tooltips="1" connect="1" arrows="1" fold="1" page="1" pageScale="1" pageWidth="827" pageHeight="1169" math="0" shadow="0">
      <root>
        <mxCell id="0" />
        <mxCell id="1" parent="0" />
        <mxCell id="8gmx8KgziplPnl8kWPSp-15" value="Utente" style="shape=umlActor;verticalLabelPosition=bottom;verticalAlign=top;html=1;" vertex="1" parent="1">
          <mxGeometry x="890" y="390" width="30" height="60" as="geometry" />
        </mxCell>
        <mxCell id="8gmx8KgziplPnl8kWPSp-16" value="Login" style="ellipse;whiteSpace=wrap;html=1;" vertex="1" parent="1">
          <mxGeometry x="640" y="100" width="140" height="70" as="geometry" />
        </mxCell>
        <mxCell id="8gmx8KgziplPnl8kWPSp-17" value="Register" style="ellipse;whiteSpace=wrap;html=1;" vertex="1" parent="1">
          <mxGeometry x="480" y="100" width="140" height="70" as="geometry" />
        </mxCell>
        <mxCell id="8gmx8KgziplPnl8kWPSp-18" value="Logout" style="ellipse;whiteSpace=wrap;html=1;" vertex="1" parent="1">
          <mxGeometry x="960" y="100" width="140" height="70" as="geometry" />
        </mxCell>
        <mxCell id="8gmx8KgziplPnl8kWPSp-19" value="&lt;span id=&quot;docs-internal-guid-6a16d29e-7fff-e391-8a1d-b775d97a2869&quot;&gt;&lt;span style=&quot;background-color: transparent ; vertical-align: baseline&quot;&gt;&lt;font style=&quot;font-size: 12px&quot;&gt;Manage Profile&lt;/font&gt;&lt;/span&gt;&lt;/span&gt;" style="ellipse;whiteSpace=wrap;html=1;" vertex="1" parent="1">
          <mxGeometry x="800" y="100" width="140" height="70" as="geometry" />
        </mxCell>
        <mxCell id="8gmx8KgziplPnl8kWPSp-20" value="Browse" style="ellipse;whiteSpace=wrap;html=1;" vertex="1" parent="1">
          <mxGeometry x="300" y="320" width="140" height="70" as="geometry" />
        </mxCell>
        <mxCell id="8gmx8KgziplPnl8kWPSp-21" value="Ospite" style="shape=umlActor;verticalLabelPosition=bottom;verticalAlign=top;html=1;" vertex="1" parent="1">
          <mxGeometry x="120" y="390" width="30" height="60" as="geometry" />
        </mxCell>
        <mxCell id="8gmx8KgziplPnl8kWPSp-22" value="Manage cart" style="ellipse;whiteSpace=wrap;html=1;" vertex="1" parent="1">
          <mxGeometry x="300" y="500" width="140" height="70" as="geometry" />
        </mxCell>
        <mxCell id="8gmx8KgziplPnl8kWPSp-26" value="Filter the results" style="ellipse;whiteSpace=wrap;html=1;" vertex="1" parent="1">
          <mxGeometry x="300" y="410" width="140" height="70" as="geometry" />
        </mxCell>
        <mxCell id="8gmx8KgziplPnl8kWPSp-28" value="Read Book" style="ellipse;whiteSpace=wrap;html=1;" vertex="1" parent="1">
          <mxGeometry x="610" y="460" width="140" height="70" as="geometry" />
        </mxCell>
        <mxCell id="8gmx8KgziplPnl8kWPSp-30" value="" style="endArrow=none;html=1;rounded=0;curved=1;entryX=0;entryY=0.5;entryDx=0;entryDy=0;" edge="1" parent="1" target="8gmx8KgziplPnl8kWPSp-20">
          <mxGeometry width="50" height="50" relative="1" as="geometry">
            <mxPoint x="160" y="390" as="sourcePoint" />
            <mxPoint x="230" y="340" as="targetPoint" />
            <Array as="points">
              <mxPoint x="220" y="355" />
            </Array>
          </mxGeometry>
        </mxCell>
        <mxCell id="8gmx8KgziplPnl8kWPSp-31" value="" style="endArrow=none;html=1;rounded=0;curved=1;entryX=0;entryY=0.5;entryDx=0;entryDy=0;" edge="1" parent="1" target="8gmx8KgziplPnl8kWPSp-26">
          <mxGeometry width="50" height="50" relative="1" as="geometry">
            <mxPoint x="170" y="410" as="sourcePoint" />
            <mxPoint x="250" y="430" as="targetPoint" />
            <Array as="points">
              <mxPoint x="240" y="410" />
            </Array>
          </mxGeometry>
        </mxCell>
        <mxCell id="8gmx8KgziplPnl8kWPSp-32" value="Include" style="endArrow=open;endSize=12;dashed=1;html=1;rounded=0;exitX=0;exitY=0;exitDx=0;exitDy=0;entryX=0.5;entryY=0;entryDx=0;entryDy=0;" edge="1" parent="1" source="8gmx8KgziplPnl8kWPSp-16" target="8gmx8KgziplPnl8kWPSp-17">
          <mxGeometry width="160" relative="1" as="geometry">
            <mxPoint x="710" y="100" as="sourcePoint" />
            <mxPoint x="500" y="60" as="targetPoint" />
            <Array as="points">
              <mxPoint x="661" y="60" />
              <mxPoint x="550" y="60" />
            </Array>
          </mxGeometry>
        </mxCell>
        <mxCell id="8gmx8KgziplPnl8kWPSp-33" value="Include" style="endArrow=open;endSize=12;dashed=1;html=1;rounded=0;entryX=0.5;entryY=0;entryDx=0;entryDy=0;exitX=0;exitY=0;exitDx=0;exitDy=0;" edge="1" parent="1" source="8gmx8KgziplPnl8kWPSp-18" target="8gmx8KgziplPnl8kWPSp-16">
          <mxGeometry width="160" relative="1" as="geometry">
            <mxPoint x="1010" y="60" as="sourcePoint" />
            <mxPoint x="710" y="40" as="targetPoint" />
            <Array as="points">
              <mxPoint x="981" y="40" />
              <mxPoint x="710" y="40" />
            </Array>
          </mxGeometry>
        </mxCell>
        <mxCell id="8gmx8KgziplPnl8kWPSp-34" value="" style="endArrow=none;html=1;rounded=0;curved=1;entryX=0;entryY=0.5;entryDx=0;entryDy=0;" edge="1" parent="1" target="8gmx8KgziplPnl8kWPSp-17">
          <mxGeometry width="50" height="50" relative="1" as="geometry">
            <mxPoint x="130" y="370" as="sourcePoint" />
            <mxPoint x="280" y="135" as="targetPoint" />
            <Array as="points">
              <mxPoint x="130" y="240" />
              <mxPoint x="270" y="120" />
            </Array>
          </mxGeometry>
        </mxCell>
        <mxCell id="8gmx8KgziplPnl8kWPSp-36" value="Extends" style="endArrow=block;endSize=16;endFill=0;html=1;rounded=0;entryX=1;entryY=0.5;entryDx=0;entryDy=0;exitX=1;exitY=0.5;exitDx=0;exitDy=0;" edge="1" parent="1" source="8gmx8KgziplPnl8kWPSp-20">
          <mxGeometry x="0.2667" width="160" relative="1" as="geometry">
            <mxPoint x="600" y="444.5" as="sourcePoint" />
            <mxPoint x="440" y="444.5" as="targetPoint" />
            <mxPoint as="offset" />
            <Array as="points">
              <mxPoint x="470" y="355" />
              <mxPoint x="470" y="445" />
            </Array>
          </mxGeometry>
        </mxCell>
        <mxCell id="8gmx8KgziplPnl8kWPSp-37" value="Extends" style="endArrow=block;endSize=16;endFill=0;html=1;rounded=0;entryX=0.786;entryY=0.086;entryDx=0;entryDy=0;entryPerimeter=0;exitX=0.786;exitY=0.086;exitDx=0;exitDy=0;exitPerimeter=0;" edge="1" parent="1" source="8gmx8KgziplPnl8kWPSp-16">
          <mxGeometry width="160" relative="1" as="geometry">
            <mxPoint x="1030" y="99" as="sourcePoint" />
            <mxPoint x="870" y="99" as="targetPoint" />
            <mxPoint as="offset" />
            <Array as="points">
              <mxPoint x="750" y="70" />
              <mxPoint x="870" y="70" />
            </Array>
          </mxGeometry>
        </mxCell>
        <mxCell id="8gmx8KgziplPnl8kWPSp-40" value="" style="endArrow=none;html=1;rounded=0;curved=1;entryX=0;entryY=0.5;entryDx=0;entryDy=0;" edge="1" parent="1" target="8gmx8KgziplPnl8kWPSp-22">
          <mxGeometry width="50" height="50" relative="1" as="geometry">
            <mxPoint x="170" y="430" as="sourcePoint" />
            <mxPoint x="310" y="455" as="targetPoint" />
            <Array as="points">
              <mxPoint x="240" y="450" />
            </Array>
          </mxGeometry>
        </mxCell>
        <mxCell id="8gmx8KgziplPnl8kWPSp-42" value="" style="endArrow=none;html=1;rounded=0;curved=1;exitX=0;exitY=1;exitDx=0;exitDy=0;" edge="1" parent="1" source="8gmx8KgziplPnl8kWPSp-16">
          <mxGeometry width="50" height="50" relative="1" as="geometry">
            <mxPoint x="680" y="170" as="sourcePoint" />
            <mxPoint x="880" y="390" as="targetPoint" />
            <Array as="points">
              <mxPoint x="670" y="310" />
            </Array>
          </mxGeometry>
        </mxCell>
        <mxCell id="8gmx8KgziplPnl8kWPSp-43" value="" style="endArrow=none;html=1;rounded=0;curved=1;exitX=0.5;exitY=1;exitDx=0;exitDy=0;" edge="1" parent="1" source="8gmx8KgziplPnl8kWPSp-19">
          <mxGeometry width="50" height="50" relative="1" as="geometry">
            <mxPoint x="670.5025253169417" y="169.74873734152925" as="sourcePoint" />
            <mxPoint x="900" y="370" as="targetPoint" />
            <Array as="points">
              <mxPoint x="860" y="270" />
            </Array>
          </mxGeometry>
        </mxCell>
        <mxCell id="8gmx8KgziplPnl8kWPSp-44" value="" style="endArrow=none;html=1;rounded=0;curved=1;exitX=0.5;exitY=1;exitDx=0;exitDy=0;" edge="1" parent="1" source="8gmx8KgziplPnl8kWPSp-18">
          <mxGeometry width="50" height="50" relative="1" as="geometry">
            <mxPoint x="880" y="180" as="sourcePoint" />
            <mxPoint x="920" y="370" as="targetPoint" />
            <Array as="points">
              <mxPoint x="990" y="300" />
            </Array>
          </mxGeometry>
        </mxCell>
        <mxCell id="8gmx8KgziplPnl8kWPSp-47" value="Inheritance" style="endArrow=block;endSize=16;endFill=0;html=1;rounded=0;curved=1;" edge="1" parent="1">
          <mxGeometry width="160" relative="1" as="geometry">
            <mxPoint x="907" y="490" as="sourcePoint" />
            <mxPoint x="137" y="490" as="targetPoint" />
            <Array as="points">
              <mxPoint x="890" y="770" />
              <mxPoint x="180" y="870" />
            </Array>
          </mxGeometry>
        </mxCell>
        <mxCell id="8gmx8KgziplPnl8kWPSp-48" value="" style="endArrow=none;html=1;rounded=0;curved=1;entryX=0;entryY=0.5;entryDx=0;entryDy=0;exitX=1;exitY=0;exitDx=0;exitDy=0;" edge="1" parent="1" source="8gmx8KgziplPnl8kWPSp-28">
          <mxGeometry width="50" height="50" relative="1" as="geometry">
            <mxPoint x="740" y="462.5" as="sourcePoint" />
            <mxPoint x="880" y="427.5" as="targetPoint" />
            <Array as="points">
              <mxPoint x="800" y="427.5" />
            </Array>
          </mxGeometry>
        </mxCell>
        <mxCell id="8gmx8KgziplPnl8kWPSp-49" value="Add to the cart" style="ellipse;whiteSpace=wrap;html=1;" vertex="1" parent="1">
          <mxGeometry x="300" y="590" width="140" height="70" as="geometry" />
        </mxCell>
        <mxCell id="8gmx8KgziplPnl8kWPSp-50" value="" style="endArrow=none;html=1;rounded=0;curved=1;entryX=-0.007;entryY=0.374;entryDx=0;entryDy=0;entryPerimeter=0;" edge="1" parent="1" target="8gmx8KgziplPnl8kWPSp-49">
          <mxGeometry width="50" height="50" relative="1" as="geometry">
            <mxPoint x="160" y="460" as="sourcePoint" />
            <mxPoint x="290" y="575" as="targetPoint" />
            <Array as="points">
              <mxPoint x="230" y="490" />
            </Array>
          </mxGeometry>
        </mxCell>
        <mxCell id="8gmx8KgziplPnl8kWPSp-51" value="Buy in cart Books" style="ellipse;whiteSpace=wrap;html=1;" vertex="1" parent="1">
          <mxGeometry x="610" y="550" width="140" height="70" as="geometry" />
        </mxCell>
        <mxCell id="8gmx8KgziplPnl8kWPSp-53" value="Browse Library" style="ellipse;whiteSpace=wrap;html=1;" vertex="1" parent="1">
          <mxGeometry x="610" y="360" width="140" height="70" as="geometry" />
        </mxCell>
        <mxCell id="8gmx8KgziplPnl8kWPSp-54" value="" style="endArrow=none;html=1;rounded=0;curved=1;entryX=0;entryY=0.5;entryDx=0;entryDy=0;exitX=1;exitY=0.5;exitDx=0;exitDy=0;" edge="1" parent="1" source="8gmx8KgziplPnl8kWPSp-53">
          <mxGeometry width="50" height="50" relative="1" as="geometry">
            <mxPoint x="730" y="450" as="sourcePoint" />
            <mxPoint x="881" y="407.5" as="targetPoint" />
            <Array as="points">
              <mxPoint x="801" y="407.5" />
            </Array>
          </mxGeometry>
        </mxCell>
        <mxCell id="8gmx8KgziplPnl8kWPSp-55" value="Seller" style="shape=umlActor;verticalLabelPosition=bottom;verticalAlign=top;html=1;" vertex="1" parent="1">
          <mxGeometry x="1180" y="390" width="30" height="60" as="geometry" />
        </mxCell>
        <mxCell id="8gmx8KgziplPnl8kWPSp-56" value="Admin" style="shape=umlActor;verticalLabelPosition=bottom;verticalAlign=top;html=1;" vertex="1" parent="1">
          <mxGeometry x="1460" y="390" width="30" height="60" as="geometry" />
        </mxCell>
        <mxCell id="8gmx8KgziplPnl8kWPSp-59" value="" style="endArrow=none;html=1;rounded=0;curved=1;exitX=0;exitY=1;exitDx=0;exitDy=0;" edge="1" parent="1">
          <mxGeometry width="50" height="50" relative="1" as="geometry">
            <mxPoint x="710" y="170" as="sourcePoint" />
            <mxPoint x="1170" y="400" as="targetPoint" />
            <Array as="points">
              <mxPoint x="719" y="320" />
            </Array>
          </mxGeometry>
        </mxCell>
        <mxCell id="8gmx8KgziplPnl8kWPSp-60" value="" style="endArrow=none;html=1;rounded=0;curved=1;exitX=0.5;exitY=1;exitDx=0;exitDy=0;" edge="1" parent="1" source="8gmx8KgziplPnl8kWPSp-18">
          <mxGeometry width="50" height="50" relative="1" as="geometry">
            <mxPoint x="1040" y="180" as="sourcePoint" />
            <mxPoint x="1170" y="380" as="targetPoint" />
            <Array as="points">
              <mxPoint x="1000" y="310" />
            </Array>
          </mxGeometry>
        </mxCell>
        <mxCell id="8gmx8KgziplPnl8kWPSp-61" value="" style="endArrow=none;html=1;rounded=0;curved=1;exitX=0.5;exitY=1;exitDx=0;exitDy=0;" edge="1" parent="1" source="8gmx8KgziplPnl8kWPSp-19">
          <mxGeometry width="50" height="50" relative="1" as="geometry">
            <mxPoint x="880" y="180" as="sourcePoint" />
            <mxPoint x="1170" y="390" as="targetPoint" />
            <Array as="points">
              <mxPoint x="870" y="280" />
            </Array>
          </mxGeometry>
        </mxCell>
        <mxCell id="8gmx8KgziplPnl8kWPSp-62" value="Add books to cathalog" style="ellipse;whiteSpace=wrap;html=1;" vertex="1" parent="1">
          <mxGeometry x="1010" y="410" width="140" height="70" as="geometry" />
        </mxCell>
        <mxCell id="8gmx8KgziplPnl8kWPSp-63" value="Edit books" style="ellipse;whiteSpace=wrap;html=1;" vertex="1" parent="1">
          <mxGeometry x="1010" y="500" width="140" height="70" as="geometry" />
        </mxCell>
        <mxCell id="8gmx8KgziplPnl8kWPSp-64" value="Delete books from cathalog" style="ellipse;whiteSpace=wrap;html=1;" vertex="1" parent="1">
          <mxGeometry x="1010" y="600" width="140" height="70" as="geometry" />
        </mxCell>
        <mxCell id="8gmx8KgziplPnl8kWPSp-65" value="Add seller" style="ellipse;whiteSpace=wrap;html=1;" vertex="1" parent="1">
          <mxGeometry x="1340" y="100" width="140" height="70" as="geometry" />
        </mxCell>
        <mxCell id="8gmx8KgziplPnl8kWPSp-66" value="Delete seller" style="ellipse;whiteSpace=wrap;html=1;" vertex="1" parent="1">
          <mxGeometry x="1490" y="100" width="140" height="70" as="geometry" />
        </mxCell>
        <mxCell id="8gmx8KgziplPnl8kWPSp-67" value="Edit seller" style="ellipse;whiteSpace=wrap;html=1;" vertex="1" parent="1">
          <mxGeometry x="1190" y="100" width="140" height="70" as="geometry" />
        </mxCell>
        <mxCell id="8gmx8KgziplPnl8kWPSp-68" value="" style="endArrow=none;html=1;rounded=0;curved=1;exitX=1;exitY=1;exitDx=0;exitDy=0;" edge="1" parent="1" source="8gmx8KgziplPnl8kWPSp-16">
          <mxGeometry width="50" height="50" relative="1" as="geometry">
            <mxPoint x="720" y="180" as="sourcePoint" />
            <mxPoint x="1450" y="400" as="targetPoint" />
            <Array as="points">
              <mxPoint x="729" y="330" />
            </Array>
          </mxGeometry>
        </mxCell>
        <mxCell id="8gmx8KgziplPnl8kWPSp-69" value="" style="endArrow=none;html=1;rounded=0;curved=1;exitX=0.604;exitY=1.039;exitDx=0;exitDy=0;exitPerimeter=0;" edge="1" parent="1" source="8gmx8KgziplPnl8kWPSp-19">
          <mxGeometry width="50" height="50" relative="1" as="geometry">
            <mxPoint x="880" y="180" as="sourcePoint" />
            <mxPoint x="1460" y="380" as="targetPoint" />
            <Array as="points">
              <mxPoint x="880" y="290" />
            </Array>
          </mxGeometry>
        </mxCell>
        <mxCell id="8gmx8KgziplPnl8kWPSp-70" value="" style="endArrow=none;html=1;rounded=0;curved=1;exitX=0.5;exitY=1;exitDx=0;exitDy=0;" edge="1" parent="1">
          <mxGeometry width="50" height="50" relative="1" as="geometry">
            <mxPoint x="1040" y="180" as="sourcePoint" />
            <mxPoint x="1470" y="370" as="targetPoint" />
            <Array as="points">
              <mxPoint x="1010" y="320" />
            </Array>
          </mxGeometry>
        </mxCell>
        <mxCell id="8gmx8KgziplPnl8kWPSp-71" value="Purchase history&amp;nbsp;" style="ellipse;whiteSpace=wrap;html=1;" vertex="1" parent="1">
          <mxGeometry x="610" y="640" width="140" height="70" as="geometry" />
        </mxCell>
      </root>
    </mxGraphModel>
  </diagram>
  <diagram id="Jb7bmL4ZUwNui2YDyCHk" name="DomaineClasses">
    <mxGraphModel dx="986" dy="702" grid="1" gridSize="10" guides="1" tooltips="1" connect="1" arrows="1" fold="1" page="1" pageScale="1" pageWidth="827" pageHeight="1169" math="0" shadow="0">
      <root>
        <mxCell id="0" />
        <mxCell id="1" parent="0" />
      </root>
    </mxGraphModel>
  </diagram>
</mxfile>
